<?xml version="1.0" encoding="UTF-8"?>
<svg id="Capa_1" data-name="Capa 1" xmlns="http://www.w3.org/2000/svg" viewBox="0 0 1200 1200">
  <defs>
    <style>
      .cls-1 {
        fill: #139faa;
      }

      .cls-1, .cls-2 {
        stroke-width: 0px;
      }

      .cls-2 {
        fill: #183542;
      }
    </style>
  </defs>
  <g>
    <path class="cls-2" d="m278.37,590.65c-3.2-1.32-5.96-2.37-8.28-3.14-2.32-.77-4.39-1.41-6.21-1.9-1.82-.5-3.42-.83-4.8-.99-1.38-.17-2.73-.25-4.06-.25-6.29,0-11.37,2.12-15.23,6.37-3.87,4.25-5.8,9.85-5.8,16.8s1.96,12.42,5.88,16.39c3.92,3.97,9.24,5.96,15.98,5.96,2.87,0,6.04-.44,9.52-1.32,3.47-.88,8.25-2.48,14.32-4.8l8.61,17.38c-2.87,1.33-5.82,2.48-8.86,3.48-3.04.99-6.02,1.85-8.94,2.57-2.93.72-5.69,1.24-8.28,1.57-2.59.33-4.88.5-6.87.5-6.4,0-12.28-1.02-17.63-3.06-5.35-2.04-9.93-4.88-13.74-8.53-3.81-3.64-6.79-8-8.94-13.08-2.15-5.07-3.23-10.65-3.23-16.72,0-6.4,1.08-12.25,3.23-17.55,2.15-5.3,5.13-9.85,8.94-13.66,3.81-3.81,8.36-6.76,13.66-8.86,5.3-2.09,11.03-3.14,17.22-3.14,3.86,0,8.69.8,14.49,2.4,5.8,1.6,11.56,3.67,17.3,6.21l-8.28,17.38Z"/>
    <path class="cls-2" d="m357.34,645.62c-2.98,1.1-6.54,2.01-10.68,2.73-4.14.72-8.14,1.08-12,1.08s-7.73-.58-11.92-1.74c-4.2-1.16-8.09-3.09-11.67-5.8-3.59-2.7-6.57-6.21-8.94-10.51-2.37-4.3-3.56-9.6-3.56-15.89v-48.67h21.69v48.51c0,2.43.44,4.55,1.32,6.37.88,1.82,2.04,3.31,3.48,4.47,1.43,1.16,3.06,2.04,4.88,2.65,1.82.61,3.61.91,5.38.91,3.53,0,6.46-.19,8.78-.58,2.32-.38,4.47-1.18,6.46-2.4v-59.93h21.85v88.9l-15.06-10.1Z"/>
    <path class="cls-2" d="m454.02,590.65c-3.2-1.32-5.96-2.37-8.28-3.14-2.32-.77-4.39-1.41-6.21-1.9-1.82-.5-3.42-.83-4.8-.99-1.38-.17-2.73-.25-4.06-.25-6.29,0-11.37,2.12-15.23,6.37-3.87,4.25-5.79,9.85-5.79,16.8s1.96,12.42,5.88,16.39c3.92,3.97,9.24,5.96,15.98,5.96,2.87,0,6.04-.44,9.52-1.32,3.48-.88,8.25-2.48,14.32-4.8l8.61,17.38c-2.87,1.33-5.82,2.48-8.86,3.48-3.04.99-6.02,1.85-8.94,2.57-2.93.72-5.69,1.24-8.28,1.57-2.6.33-4.89.5-6.87.5-6.4,0-12.28-1.02-17.63-3.06-5.35-2.04-9.93-4.88-13.74-8.53-3.81-3.64-6.79-8-8.94-13.08-2.15-5.07-3.23-10.65-3.23-16.72,0-6.4,1.08-12.25,3.23-17.55,2.15-5.3,5.13-9.85,8.94-13.66,3.81-3.81,8.36-6.76,13.66-8.86,5.3-2.09,11.03-3.14,17.22-3.14,3.86,0,8.69.8,14.49,2.4,5.79,1.6,11.56,3.67,17.3,6.21l-8.28,17.38Z"/>
    <path class="cls-2" d="m512.13,604.89l38.24,31.12-14.24,14.24-38.24-31.62v28.97h-21.52v-114.89l21.52-5.8v64.07l33.61-28.47,12.25,16.06-31.62,26.33Z"/>
    <path class="cls-2" d="m638.94,624.1c-2.21,5.19-5.21,9.66-9.02,13.41-3.81,3.75-8.36,6.7-13.66,8.86-5.3,2.15-10.98,3.22-17.05,3.22s-11.7-1.07-16.89-3.22c-5.19-2.15-9.72-5.11-13.58-8.86-3.86-3.75-6.9-8.22-9.11-13.41-2.21-5.19-3.31-10.76-3.31-16.72s1.1-11.67,3.31-16.8c2.21-5.13,5.24-9.6,9.11-13.41,3.86-3.81,8.39-6.79,13.58-8.94,5.19-2.15,10.81-3.23,16.89-3.23s11.75,1.08,17.05,3.23c5.3,2.15,9.85,5.13,13.66,8.94,3.81,3.81,6.81,8.28,9.02,13.41,2.21,5.13,3.31,10.74,3.31,16.8s-1.1,11.54-3.31,16.72Zm-20.61-25.91c-1.05-2.82-2.51-5.24-4.39-7.28-1.88-2.04-4.05-3.67-6.54-4.89-2.48-1.21-5.21-1.82-8.2-1.82s-5.57.58-8.11,1.74c-2.54,1.16-4.75,2.79-6.62,4.89-1.88,2.1-3.34,4.55-4.39,7.37-1.05,2.81-1.57,5.88-1.57,9.19s.52,6.38,1.57,9.19c1.05,2.81,2.51,5.21,4.39,7.2,1.87,1.99,4.08,3.56,6.62,4.72,2.54,1.16,5.24,1.74,8.11,1.74s5.71-.58,8.2-1.74c2.48-1.16,4.66-2.73,6.54-4.72,1.88-1.99,3.34-4.39,4.39-7.2,1.05-2.81,1.57-5.88,1.57-9.19s-.52-6.37-1.57-9.19Z"/>
    <path class="cls-2" d="m735.46,624.1c-2.21,5.19-5.22,9.66-9.02,13.41-3.81,3.75-8.36,6.7-13.66,8.86-5.3,2.15-10.98,3.22-17.05,3.22s-11.7-1.07-16.89-3.22c-5.19-2.15-9.71-5.11-13.57-8.86-3.87-3.75-6.9-8.22-9.11-13.41-2.21-5.19-3.31-10.76-3.31-16.72s1.1-11.67,3.31-16.8c2.21-5.13,5.24-9.6,9.11-13.41,3.86-3.81,8.38-6.79,13.57-8.94,5.19-2.15,10.82-3.23,16.89-3.23s11.75,1.08,17.05,3.23c5.3,2.15,9.85,5.13,13.66,8.94,3.81,3.81,6.81,8.28,9.02,13.41,2.21,5.13,3.31,10.74,3.31,16.8s-1.1,11.54-3.31,16.72Zm-20.61-25.91c-1.05-2.82-2.51-5.24-4.39-7.28-1.88-2.04-4.05-3.67-6.54-4.89-2.49-1.21-5.22-1.82-8.2-1.82s-5.57.58-8.11,1.74c-2.54,1.16-4.75,2.79-6.63,4.89-1.88,2.1-3.34,4.55-4.38,7.37-1.05,2.81-1.57,5.88-1.57,9.19s.52,6.38,1.57,9.19c1.05,2.81,2.51,5.21,4.38,7.2,1.88,1.99,4.08,3.56,6.63,4.72,2.54,1.16,5.24,1.74,8.11,1.74s5.71-.58,8.2-1.74c2.48-1.16,4.66-2.73,6.54-4.72,1.88-1.99,3.34-4.39,4.39-7.2,1.05-2.81,1.57-5.88,1.57-9.19s-.52-6.37-1.57-9.19Z"/>
  </g>
  <g>
    <path class="cls-1" d="m764.57,565.03h44.22c1.05,0,1.93.34,2.66,1.03.72.68,1.09,1.55,1.09,2.6s-.36,1.89-1.09,2.54c-.73.65-1.61.97-2.66.97h-41.44l1.21-2.05v33.95l-1.33-1.57h36.12c1.05,0,1.93.36,2.66,1.09.72.72,1.09,1.57,1.09,2.54,0,1.05-.36,1.89-1.09,2.54-.73.65-1.61.97-2.66.97h-35.88l1.09-1.21v34.8l-.6-.72h40.84c1.05,0,1.93.36,2.66,1.09.72.73,1.09,1.57,1.09,2.54,0,1.05-.36,1.89-1.09,2.54-.73.65-1.61.97-2.66.97h-44.22c-1.05,0-1.91-.36-2.6-1.09-.69-.72-1.03-1.57-1.03-2.54v-77.32c0-.97.34-1.81,1.03-2.54.68-.72,1.55-1.09,2.6-1.09Z"/>
    <path class="cls-1" d="m856.44,574.45l-29.36,72.85c-.32.81-.77,1.41-1.33,1.81-.56.4-1.21.6-1.93.6-1.21,0-2.1-.3-2.66-.91-.57-.6-.85-1.35-.85-2.24-.08-.4-.04-.89.12-1.45l31.9-78.05c.32-.88.78-1.51,1.39-1.87.6-.36,1.31-.54,2.11-.54.89,0,1.63.22,2.24.66.6.44,1.07,1.03,1.39,1.75l31.78,77.69c.16.48.24.97.24,1.45,0,1.13-.36,1.99-1.09,2.6-.73.6-1.57.91-2.54.91-.81,0-1.51-.22-2.11-.67-.6-.44-1.07-1.03-1.39-1.75l-30.08-73.46,2.17.6Zm-22.35,50.74l3.02-7.13h37.46l1.45,7.13h-41.92Z"/>
    <path class="cls-1" d="m885.98,571.91c-.97,0-1.81-.32-2.54-.97-.73-.64-1.09-1.45-1.09-2.42,0-1.05.36-1.89,1.09-2.54.72-.64,1.57-.97,2.54-.97h57.39c1.05,0,1.93.32,2.66.97.72.65,1.09,1.49,1.09,2.54s-.36,1.87-1.09,2.48c-.73.6-1.61.91-2.66.91h-57.39Zm28.76,77.69c-1.13,0-2.05-.36-2.78-1.09-.73-.72-1.09-1.57-1.09-2.54v-76.96h7.61v76.96c0,.97-.36,1.81-1.09,2.54s-1.61,1.09-2.66,1.09Z"/>
    <path class="cls-1" d="m979.86,650.81c-6.12.08-11.44-.87-15.95-2.84-4.51-1.97-8.82-4.97-12.93-9-.4-.4-.75-.85-1.03-1.33-.28-.48-.42-1.04-.42-1.69,0-.97.38-1.85,1.15-2.66.76-.8,1.63-1.21,2.6-1.21s1.85.4,2.66,1.21c3.14,3.38,6.71,5.96,10.69,7.73,3.99,1.77,8.28,2.66,12.87,2.66,3.87,0,7.31-.6,10.33-1.81,3.02-1.21,5.42-2.94,7.19-5.19s2.66-4.87,2.66-7.85c-.08-3.7-1.11-6.69-3.08-8.94-1.97-2.26-4.61-4.15-7.91-5.68-3.3-1.53-6.97-2.86-11-3.99-3.3-1.05-6.46-2.19-9.48-3.44-3.02-1.25-5.68-2.78-7.97-4.59-2.3-1.81-4.09-4.05-5.38-6.71-1.29-2.66-1.93-5.84-1.93-9.54,0-4.27,1.13-8.07,3.38-11.42,2.25-3.34,5.46-5.96,9.61-7.85,4.15-1.89,8.96-2.84,14.44-2.84,4.75,0,9.32.81,13.71,2.42,4.39,1.61,7.87,3.99,10.45,7.13,1.21,1.29,1.81,2.46,1.81,3.5,0,.89-.4,1.71-1.21,2.48-.81.77-1.69,1.15-2.66,1.15-.81,0-1.49-.28-2.05-.85-1.37-1.69-3.1-3.2-5.2-4.53-2.1-1.33-4.41-2.36-6.95-3.08-2.54-.72-5.18-1.09-7.91-1.09-3.79,0-7.19.58-10.21,1.75-3.02,1.17-5.4,2.84-7.13,5.01-1.73,2.17-2.6,4.83-2.6,7.97,0,3.38.97,6.14,2.9,8.28,1.93,2.14,4.47,3.91,7.61,5.32,3.14,1.41,6.48,2.72,10.03,3.93,3.46.97,6.78,2.07,9.97,3.32,3.18,1.25,6,2.8,8.46,4.65,2.46,1.85,4.39,4.19,5.8,7.01,1.41,2.82,2.12,6.36,2.12,10.63s-1.17,7.81-3.5,11.11c-2.34,3.3-5.54,5.92-9.6,7.85-4.07,1.93-8.84,2.94-14.32,3.02Z"/>
  </g>
</svg>