<?xml version="1.0" encoding="UTF-8"?>
<svg id="Capa_1" data-name="Capa 1" xmlns="http://www.w3.org/2000/svg" viewBox="0 0 1200 1200">
  <defs>
    <style>
      .cls-1, .cls-2 {
        stroke-width: 0px;
      }

      .cls-2 {
        fill: #139faa;
      }
    </style>
  </defs>
  <circle class="cls-2" cx="566.58" cy="600" r="299.19" transform="translate(-258.32 576.37) rotate(-45)"/>
  <path class="cls-1" d="m179.76,326.47s206.25,79.32,224.9,85.84c0,0,176.21,75.33,272.83-18.89,0,0,43.12-52.24,51.57-59.41,0,0,57.4-59.51,130.8-7.55,0,0,87.7-25.97,93.54-21.43,0,0-74.51,40.36-100.28,86.11,0,0-20.67,33.84-25.48,71.63,0,0-32.73,182.63-189.92,204.71,0,0,.62,28.18,2.22,38.93l7.52,46.82s60.41,5.19,77.95,56.5l-7.79,5.85s-10.97-6.66-20.62-17.03c0,0-12.51-18.05-31.99-21.94,0,0,27.92,46.12,23.39,70.16l-13.64,1.93s-13.65-61.7-44.82-77.94c0,0-4.38-3.49-32.08,12.56,0,0-14.05,8.22-18.59-2.82,0,0-.47-9.86,12.1-14.7,0,0,38.99-12.24,38.57-14.53-.43-2.27.41,2.29.41,2.29,0,0-7.8-58.06-8.85-63.47l-5.21-20.65s-25.98.65-68.2-5.85c0,0-1.31,118.87,3.89,136.4,0,0,57.18,3.89,77.96,56.51l-11.7,5.85s-33.78-38.97-50.66-40.92c0,0,28.57,48.08,25.32,72.09l-13.63,1.96s-16.97-68.51-44.82-77.93c0,0-10.84-.88-31.41,11.9,0,0-12.76,7.6-21.2-.2,0,0,3.59-14.51,21.85-20.15l30.76-11.04s-7.15-104.57-3.89-142.25c0,0-79.9-20.13-109.13-138.36,0,0-183.8-94.8-206.55-109.44,0,0-29.24-23.07-35.09-81.54Z"/>
</svg>